<svg
  width="640"
  height="480"
  viewBox="0 0 640 480"
  fill="none"
  xmlns="http://www.w3.org/2000/svg"
  role="img"
  aria-labelledby="title desc"
>
  <title id="title">Разноцветные счёты</title>
  <desc id="desc">
    Счёты с оранжевыми, чёрными, белыми и коричневыми бусинами
  </desc>
  <rect width="640" height="480" rx="32" fill="#F8FAFC" />
  <rect
    x="104"
    y="76"
    width="432"
    height="328"
    rx="28"
    fill="#FFF7ED"
    stroke="#92400E"
    stroke-width="12"
  />
  <g stroke="#92400E" stroke-width="8" stroke-linecap="round">
    <path d="M148 148H492" />
    <path d="M148 214H492" />
    <path d="M148 280H492" />
    <path d="M148 346H492" />
  </g>
  <g>
    <circle cx="196" cy="148" r="24" fill="#F47C24" />
    <circle cx="252" cy="148" r="24" fill="#F47C24" />
    <circle cx="308" cy="148" r="24" fill="#F47C24" />
    <circle cx="364" cy="148" r="24" fill="#F47C24" />
    <circle cx="420" cy="148" r="24" fill="#F47C24" />
    <circle cx="196" cy="214" r="24" fill="#111111" />
    <circle cx="252" cy="214" r="24" fill="#111111" />
    <circle cx="308" cy="214" r="24" fill="#111111" />
    <circle cx="364" cy="214" r="24" fill="#111111" />
    <circle
      cx="196"
      cy="280"
      r="24"
      fill="#FFFFFF"
      stroke="#4F7FD9"
      stroke-width="5"
    />
    <circle
      cx="252"
      cy="280"
      r="24"
      fill="#FFFFFF"
      stroke="#4F7FD9"
      stroke-width="5"
    />
    <circle
      cx="308"
      cy="280"
      r="24"
      fill="#FFFFFF"
      stroke="#4F7FD9"
      stroke-width="5"
    />
    <circle cx="196" cy="346" r="24" fill="#8A6500" />
    <circle cx="252" cy="346" r="24" fill="#8A6500" />
  </g>
</svg>
