<svg xmlns="http://www.w3.org/2000/svg" viewBox="0 0 1200 760" role="img" aria-label="Приложение 3: цветные животные на лугу">
  <rect width="1200" height="760" rx="44" fill="#ecfeff"/>
  <rect x="70" y="170" width="1060" height="500" rx="40" fill="#bbf7d0"/>
  <path d="M70 560 C220 500 355 610 520 540 C720 455 860 610 1130 520 L1130 670 L70 670 Z" fill="#86efac"/>
  <text x="600" y="90" text-anchor="middle" font-family="Arial, sans-serif" font-size="38" font-weight="800" fill="#064e3b">草地上有什么动物？</text>
  <text x="600" y="132" text-anchor="middle" font-family="Arial, sans-serif" font-size="24" fill="#047857">Кто есть на лугу?</text>
  <g transform="translate(170 270)">
    <ellipse cx="120" cy="135" rx="110" ry="60" fill="#60a5fa"/>
    <circle cx="210" cy="98" r="42" fill="#60a5fa"/>
    <path d="M235 82 L282 55 L263 106 Z" fill="#60a5fa"/>
    <circle cx="224" cy="93" r="7" fill="#111827"/>
    <rect x="56" y="180" width="24" height="78" rx="12" fill="#2563eb"/>
    <rect x="151" y="180" width="24" height="78" rx="12" fill="#2563eb"/>
    <text x="140" y="300" text-anchor="middle" font-family="Noto Sans SC, Arial, sans-serif" font-size="28" font-weight="700" fill="#1e3a8a">蓝色的牛</text>
  </g>
  <g transform="translate(500 300)">
    <ellipse cx="115" cy="120" rx="95" ry="55" fill="#facc15"/>
    <circle cx="195" cy="90" r="38" fill="#facc15"/>
    <path d="M184 58 L197 28 L211 58 Z" fill="#facc15"/>
    <path d="M214 63 L248 43 L234 78 Z" fill="#facc15"/>
    <circle cx="206" cy="86" r="6" fill="#111827"/>
    <path d="M45 105 C8 75 28 48 70 80" fill="none" stroke="#facc15" stroke-width="18" stroke-linecap="round"/>
    <rect x="74" y="158" width="18" height="62" rx="9" fill="#ca8a04"/>
    <rect x="145" y="158" width="18" height="62" rx="9" fill="#ca8a04"/>
    <text x="140" y="265" text-anchor="middle" font-family="Noto Sans SC, Arial, sans-serif" font-size="28" font-weight="700" fill="#854d0e">黄色的猫</text>
  </g>
  <g transform="translate(815 290)">
    <ellipse cx="125" cy="135" rx="105" ry="55" fill="#22c55e"/>
    <circle cx="215" cy="99" r="37" fill="#22c55e"/>
    <path d="M236 80 L280 58 L260 105 Z" fill="#22c55e"/>
    <circle cx="225" cy="94" r="6" fill="#052e16"/>
    <rect x="66" y="175" width="22" height="72" rx="11" fill="#15803d"/>
    <rect x="154" y="175" width="22" height="72" rx="11" fill="#15803d"/>
    <text x="145" y="292" text-anchor="middle" font-family="Noto Sans SC, Arial, sans-serif" font-size="28" font-weight="700" fill="#14532d">绿色的羊</text>
  </g>
</svg>
