<svg width="40" height="40" viewBox="0 0 40 40" fill="none" xmlns="http://www.w3.org/2000/svg">
<rect width="40" height="40" rx="15" fill="url(#paint0_linear_97_13)" fill-opacity="0.5"/>
<rect width="40" height="40" rx="15" fill="url(#paint1_linear_97_13)" fill-opacity="0.5"/>
<rect width="40" height="40" rx="15" fill="url(#paint2_linear_97_13)" fill-opacity="0.5"/>
<rect width="40" height="40" rx="15" fill="url(#paint3_linear_97_13)" fill-opacity="0.5"/>
<g filter="url(#filter0_d_97_13)">
<path d="M11.608 29.336C10.44 29.336 9.264 29.12 8.08 28.688C6.912 28.256 5.864 27.616 4.936 26.768L7.384 23.816C8.008 24.36 8.704 24.8 9.472 25.136C10.256 25.472 11 25.64 11.704 25.64C12.504 25.64 13.088 25.504 13.456 25.232C13.84 24.944 14.032 24.56 14.032 24.08C14.032 23.728 13.928 23.448 13.72 23.24C13.512 23.016 13.216 22.816 12.832 22.64C12.464 22.464 12.024 22.272 11.512 22.064L9.232 21.104C8.608 20.848 8.016 20.504 7.456 20.072C6.912 19.64 6.464 19.104 6.112 18.464C5.776 17.824 5.608 17.072 5.608 16.208C5.608 15.2 5.88 14.288 6.424 13.472C6.984 12.656 7.752 12.008 8.728 11.528C9.704 11.048 10.824 10.808 12.088 10.808C13.128 10.808 14.16 11.008 15.184 11.408C16.208 11.792 17.112 12.376 17.896 13.16L15.76 15.848C15.168 15.4 14.584 15.064 14.008 14.84C13.432 14.6 12.792 14.48 12.088 14.48C11.432 14.48 10.912 14.608 10.528 14.864C10.16 15.12 9.976 15.48 9.976 15.944C9.976 16.28 10.088 16.56 10.312 16.784C10.552 17.008 10.872 17.208 11.272 17.384C11.672 17.56 12.136 17.752 12.664 17.96L14.896 18.848C15.632 19.136 16.264 19.504 16.792 19.952C17.32 20.4 17.72 20.936 17.992 21.56C18.28 22.168 18.424 22.896 18.424 23.744C18.424 24.736 18.152 25.656 17.608 26.504C17.08 27.352 16.304 28.04 15.28 28.568C14.272 29.08 13.048 29.336 11.608 29.336ZM20.1921 29V11.12H25.3281C27.1521 11.12 28.7361 11.432 30.0801 12.056C31.4401 12.664 32.4961 13.616 33.2481 14.912C34.0001 16.208 34.3761 17.896 34.3761 19.976C34.3761 22.04 34.0001 23.744 33.2481 25.088C32.5121 26.416 31.4801 27.4 30.1521 28.04C28.8401 28.68 27.3121 29 25.5681 29H20.1921ZM24.4881 25.544H25.0641C26.0241 25.544 26.8721 25.376 27.6081 25.04C28.3601 24.704 28.9441 24.128 29.3601 23.312C29.7761 22.496 29.9841 21.384 29.9841 19.976C29.9841 18.552 29.7761 17.448 29.3601 16.664C28.9441 15.88 28.3601 15.336 27.6081 15.032C26.8721 14.712 26.0241 14.552 25.0641 14.552H24.4881V25.544Z" fill="white"/>
</g>
<defs>
<filter id="filter0_d_97_13" x="0.936005" y="10.808" width="37.4401" height="26.528" filterUnits="userSpaceOnUse" color-interpolation-filters="sRGB">
<feFlood flood-opacity="0" result="BackgroundImageFix"/>
<feColorMatrix in="SourceAlpha" type="matrix" values="0 0 0 0 0 0 0 0 0 0 0 0 0 0 0 0 0 0 127 0" result="hardAlpha"/>
<feOffset dy="4"/>
<feGaussianBlur stdDeviation="2"/>
<feComposite in2="hardAlpha" operator="out"/>
<feColorMatrix type="matrix" values="0 0 0 0 0 0 0 0 0 0 0 0 0 0 0 0 0 0 0.25 0"/>
<feBlend mode="normal" in2="BackgroundImageFix" result="effect1_dropShadow_97_13"/>
<feBlend mode="normal" in="SourceGraphic" in2="effect1_dropShadow_97_13" result="shape"/>
</filter>
<linearGradient id="paint0_linear_97_13" x1="40" y1="20" x2="-6.3573e-07" y2="20" gradientUnits="userSpaceOnUse">
<stop stop-color="#C9B4FF"/>
<stop offset="1" stop-color="#70B7FF" stop-opacity="0"/>
</linearGradient>
<linearGradient id="paint1_linear_97_13" x1="20" y1="40" x2="20" y2="-8.74228e-07" gradientUnits="userSpaceOnUse">
<stop stop-color="#FFB6E8"/>
<stop offset="1" stop-color="#70B7FF" stop-opacity="0"/>
</linearGradient>
<linearGradient id="paint2_linear_97_13" x1="20" y1="0" x2="20" y2="40" gradientUnits="userSpaceOnUse">
<stop stop-color="#C9FF4F"/>
<stop offset="1" stop-color="#70B7FF" stop-opacity="0"/>
</linearGradient>
<linearGradient id="paint3_linear_97_13" x1="0" y1="20" x2="40" y2="20" gradientUnits="userSpaceOnUse">
<stop stop-color="#70B7FF"/>
<stop offset="1" stop-color="#70B7FF" stop-opacity="0"/>
</linearGradient>
</defs>
</svg>
