<svg width="100" height="100" viewBox="0 0 100 100" fill="none" xmlns="http://www.w3.org/2000/svg">
<path d="M50 100C22.3858 100 -1.20706e-06 77.6142 0 50C1.20706e-06 22.3858 22.3858 -1.20706e-06 50 0C77.6142 1.20706e-06 100 22.3858 100 50C100 77.6142 77.6142 100 50 100Z" fill="url(#paint0_linear_85_30)" fill-opacity="0.5"/>
<path d="M50 100C22.3858 100 -1.20706e-06 77.6142 0 50C1.20706e-06 22.3858 22.3858 -1.20706e-06 50 0C77.6142 1.20706e-06 100 22.3858 100 50C100 77.6142 77.6142 100 50 100Z" fill="url(#paint1_linear_85_30)" fill-opacity="0.5"/>
<path d="M50 100C22.3858 100 -1.20706e-06 77.6142 0 50C1.20706e-06 22.3858 22.3858 -1.20706e-06 50 0C77.6142 1.20706e-06 100 22.3858 100 50C100 77.6142 77.6142 100 50 100Z" fill="url(#paint2_linear_85_30)" fill-opacity="0.5"/>
<path d="M50 100C22.3858 100 -1.20706e-06 77.6142 0 50C1.20706e-06 22.3858 22.3858 -1.20706e-06 50 0C77.6142 1.20706e-06 100 22.3858 100 50C100 77.6142 77.6142 100 50 100Z" fill="url(#paint3_linear_85_30)" fill-opacity="0.5"/>
<path d="M50 100C22.3858 100 -1.20706e-06 77.6142 0 50C1.20706e-06 22.3858 22.3858 -1.20706e-06 50 0C77.6142 1.20706e-06 100 22.3858 100 50C100 77.6142 77.6142 100 50 100Z" fill="url(#paint4_linear_85_30)" fill-opacity="0.5"/>
<path d="M50 100C22.3858 100 -1.20706e-06 77.6142 0 50C1.20706e-06 22.3858 22.3858 -1.20706e-06 50 0C77.6142 1.20706e-06 100 22.3858 100 50C100 77.6142 77.6142 100 50 100Z" fill="url(#paint5_linear_85_30)" fill-opacity="0.5"/>
<path d="M50 100C22.3858 100 -1.20706e-06 77.6142 0 50C1.20706e-06 22.3858 22.3858 -1.20706e-06 50 0C77.6142 1.20706e-06 100 22.3858 100 50C100 77.6142 77.6142 100 50 100Z" fill="url(#paint6_linear_85_30)" fill-opacity="0.5"/>
<path d="M50 100C22.3858 100 -1.20706e-06 77.6142 0 50C1.20706e-06 22.3858 22.3858 -1.20706e-06 50 0C77.6142 1.20706e-06 100 22.3858 100 50C100 77.6142 77.6142 100 50 100Z" fill="url(#paint7_linear_85_30)" fill-opacity="0.5"/>
<path d="M50 100C22.3858 100 -1.20706e-06 77.6142 0 50C1.20706e-06 22.3858 22.3858 -1.20706e-06 50 0C77.6142 1.20706e-06 100 22.3858 100 50C100 77.6142 77.6142 100 50 100Z" fill="url(#paint8_linear_85_30)" fill-opacity="0.5"/>
<path d="M50 100C22.3858 100 -1.20706e-06 77.6142 0 50C1.20706e-06 22.3858 22.3858 -1.20706e-06 50 0C77.6142 1.20706e-06 100 22.3858 100 50C100 77.6142 77.6142 100 50 100Z" fill="url(#paint9_linear_85_30)" fill-opacity="0.5"/>
<path d="M50 100C22.3858 100 -1.20706e-06 77.6142 0 50C1.20706e-06 22.3858 22.3858 -1.20706e-06 50 0C77.6142 1.20706e-06 100 22.3858 100 50C100 77.6142 77.6142 100 50 100Z" fill="url(#paint10_linear_85_30)" fill-opacity="0.5"/>
<path d="M50 100C22.3858 100 -1.20706e-06 77.6142 0 50C1.20706e-06 22.3858 22.3858 -1.20706e-06 50 0C77.6142 1.20706e-06 100 22.3858 100 50C100 77.6142 77.6142 100 50 100Z" fill="url(#paint11_linear_85_30)" fill-opacity="0.5"/>
<path d="M50 100C22.3858 100 -1.20706e-06 77.6142 0 50C1.20706e-06 22.3858 22.3858 -1.20706e-06 50 0C77.6142 1.20706e-06 100 22.3858 100 50C100 77.6142 77.6142 100 50 100Z" fill="url(#paint12_linear_85_30)" fill-opacity="0.5"/>
<path d="M50 100C22.3858 100 -1.20706e-06 77.6142 0 50C1.20706e-06 22.3858 22.3858 -1.20706e-06 50 0C77.6142 1.20706e-06 100 22.3858 100 50C100 77.6142 77.6142 100 50 100Z" fill="url(#paint13_linear_85_30)" fill-opacity="0.5"/>
<path d="M50 100C22.3858 100 -1.20706e-06 77.6142 0 50C1.20706e-06 22.3858 22.3858 -1.20706e-06 50 0C77.6142 1.20706e-06 100 22.3858 100 50C100 77.6142 77.6142 100 50 100Z" fill="url(#paint14_linear_85_30)" fill-opacity="0.5"/>
<path d="M50 100C22.3858 100 -1.20706e-06 77.6142 0 50C1.20706e-06 22.3858 22.3858 -1.20706e-06 50 0C77.6142 1.20706e-06 100 22.3858 100 50C100 77.6142 77.6142 100 50 100Z" fill="url(#paint15_linear_85_30)" fill-opacity="0.5"/>
<path d="M30.288 75.896C27.1733 75.896 24.0373 75.32 20.88 74.168C17.7653 73.016 14.9707 71.3093 12.496 69.048L19.024 61.176C20.688 62.6267 22.544 63.8 24.592 64.696C26.6827 65.592 28.6667 66.04 30.544 66.04C32.6773 66.04 34.2347 65.6773 35.216 64.952C36.24 64.184 36.752 63.16 36.752 61.88C36.752 60.9413 36.4747 60.1947 35.92 59.64C35.3653 59.0427 34.576 58.5093 33.552 58.04C32.5707 57.5707 31.3973 57.0587 30.032 56.504L23.952 53.944C22.288 53.2613 20.7093 52.344 19.216 51.192C17.7653 50.04 16.5707 48.6107 15.632 46.904C14.736 45.1973 14.288 43.192 14.288 40.888C14.288 38.2 15.0133 35.768 16.464 33.592C17.9573 31.416 20.0053 29.688 22.608 28.408C25.2107 27.128 28.1973 26.488 31.568 26.488C34.3413 26.488 37.0933 27.0213 39.824 28.088C42.5547 29.112 44.9653 30.6693 47.056 32.76L41.36 39.928C39.7813 38.7333 38.224 37.8373 36.688 37.24C35.152 36.6 33.4453 36.28 31.568 36.28C29.8187 36.28 28.432 36.6213 27.408 37.304C26.4267 37.9867 25.936 38.9467 25.936 40.184C25.936 41.08 26.2347 41.8267 26.832 42.424C27.472 43.0213 28.3253 43.5547 29.392 44.024C30.4587 44.4933 31.696 45.0053 33.104 45.56L39.056 47.928C41.0187 48.696 42.704 49.6773 44.112 50.872C45.52 52.0667 46.5867 53.496 47.312 55.16C48.08 56.7813 48.464 58.7227 48.464 60.984C48.464 63.6293 47.7387 66.0827 46.288 68.344C44.88 70.6053 42.8107 72.44 40.08 73.848C37.392 75.2133 34.128 75.896 30.288 75.896Z" fill="black"/>
<path d="M65.339 75.896C62.3097 75.896 59.6643 75.128 57.403 73.592C55.1843 72.056 53.4563 69.8587 52.219 67C51.0243 64.1413 50.427 60.728 50.427 56.76C50.427 52.792 51.1523 49.4 52.603 46.584C54.0537 43.7253 55.931 41.528 58.235 39.992C60.539 38.456 62.9497 37.688 65.467 37.688C67.4723 37.688 69.1363 38.0293 70.459 38.712C71.7817 39.3947 73.0403 40.312 74.235 41.464L73.851 36.024V23.864H85.243V75H75.963L75.131 71.48H74.875C73.595 72.76 72.123 73.8267 70.459 74.68C68.795 75.4907 67.0883 75.896 65.339 75.896ZM68.347 66.552C69.4563 66.552 70.4377 66.3387 71.291 65.912C72.187 65.4853 73.0403 64.6747 73.851 63.48V49.144C72.9977 48.3333 72.0803 47.7787 71.099 47.48C70.1177 47.1387 69.1363 46.968 68.155 46.968C67.131 46.968 66.1497 47.3093 65.211 47.992C64.315 48.6747 63.5683 49.72 62.971 51.128C62.4163 52.536 62.139 54.3707 62.139 56.632C62.139 58.936 62.3737 60.8347 62.843 62.328C63.355 63.7787 64.0803 64.8453 65.019 65.528C65.9577 66.2107 67.067 66.552 68.347 66.552Z" fill="black"/>
<defs>
<linearGradient id="paint0_linear_85_30" x1="50" y1="100" x2="50" y2="-2.18557e-06" gradientUnits="userSpaceOnUse">
<stop stop-color="#C9B4FF"/>
<stop offset="1" stop-color="#70B7FF" stop-opacity="0"/>
</linearGradient>
<linearGradient id="paint1_linear_85_30" x1="50" y1="100" x2="50" y2="-2.18557e-06" gradientUnits="userSpaceOnUse">
<stop stop-color="#C9B4FF"/>
<stop offset="1" stop-color="#70B7FF" stop-opacity="0"/>
</linearGradient>
<linearGradient id="paint2_linear_85_30" x1="1.95503e-05" y1="50" x2="100" y2="50" gradientUnits="userSpaceOnUse">
<stop stop-color="#FFB6E8"/>
<stop offset="1" stop-color="#70B7FF" stop-opacity="0"/>
</linearGradient>
<linearGradient id="paint3_linear_85_30" x1="1.95503e-05" y1="50" x2="100" y2="50" gradientUnits="userSpaceOnUse">
<stop stop-color="#FFB6E8"/>
<stop offset="1" stop-color="#70B7FF" stop-opacity="0"/>
</linearGradient>
<linearGradient id="paint4_linear_85_30" x1="100" y1="50" x2="9.73536e-06" y2="50" gradientUnits="userSpaceOnUse">
<stop stop-color="#C9FF4F"/>
<stop offset="1" stop-color="#70B7FF" stop-opacity="0"/>
</linearGradient>
<linearGradient id="paint5_linear_85_30" x1="100" y1="50" x2="9.73536e-06" y2="50" gradientUnits="userSpaceOnUse">
<stop stop-color="#C9FF4F"/>
<stop offset="1" stop-color="#70B7FF" stop-opacity="0"/>
</linearGradient>
<linearGradient id="paint6_linear_85_30" x1="50" y1="-2.18557e-06" x2="50" y2="100" gradientUnits="userSpaceOnUse">
<stop stop-color="#70B7FF"/>
<stop offset="1" stop-color="#70B7FF" stop-opacity="0"/>
</linearGradient>
<linearGradient id="paint7_linear_85_30" x1="50" y1="-2.18557e-06" x2="50" y2="100" gradientUnits="userSpaceOnUse">
<stop stop-color="#70B7FF"/>
<stop offset="1" stop-color="#70B7FF" stop-opacity="0"/>
</linearGradient>
<linearGradient id="paint8_linear_85_30" x1="50" y1="100" x2="50" y2="-2.18557e-06" gradientUnits="userSpaceOnUse">
<stop stop-color="#C9B4FF"/>
<stop offset="1" stop-color="#70B7FF" stop-opacity="0"/>
</linearGradient>
<linearGradient id="paint9_linear_85_30" x1="50" y1="100" x2="50" y2="-2.18557e-06" gradientUnits="userSpaceOnUse">
<stop stop-color="#C9B4FF"/>
<stop offset="1" stop-color="#70B7FF" stop-opacity="0"/>
</linearGradient>
<linearGradient id="paint10_linear_85_30" x1="1.95503e-05" y1="50" x2="100" y2="50" gradientUnits="userSpaceOnUse">
<stop stop-color="#FFB6E8"/>
<stop offset="1" stop-color="#70B7FF" stop-opacity="0"/>
</linearGradient>
<linearGradient id="paint11_linear_85_30" x1="1.95503e-05" y1="50" x2="100" y2="50" gradientUnits="userSpaceOnUse">
<stop stop-color="#FFB6E8"/>
<stop offset="1" stop-color="#70B7FF" stop-opacity="0"/>
</linearGradient>
<linearGradient id="paint12_linear_85_30" x1="100" y1="50" x2="9.73536e-06" y2="50" gradientUnits="userSpaceOnUse">
<stop stop-color="#C9FF4F"/>
<stop offset="1" stop-color="#70B7FF" stop-opacity="0"/>
</linearGradient>
<linearGradient id="paint13_linear_85_30" x1="100" y1="50" x2="9.73536e-06" y2="50" gradientUnits="userSpaceOnUse">
<stop stop-color="#C9FF4F"/>
<stop offset="1" stop-color="#70B7FF" stop-opacity="0"/>
</linearGradient>
<linearGradient id="paint14_linear_85_30" x1="50" y1="-2.18557e-06" x2="50" y2="100" gradientUnits="userSpaceOnUse">
<stop stop-color="#70B7FF"/>
<stop offset="1" stop-color="#70B7FF" stop-opacity="0"/>
</linearGradient>
<linearGradient id="paint15_linear_85_30" x1="50" y1="-2.18557e-06" x2="50" y2="100" gradientUnits="userSpaceOnUse">
<stop stop-color="#70B7FF"/>
<stop offset="1" stop-color="#70B7FF" stop-opacity="0"/>
</linearGradient>
</defs>
</svg>
